<?xml version="1.0" encoding="utf-8"?>
<!-- Generator: Adobe Illustrator 16.0.0, SVG Export Plug-In . SVG Version: 6.00 Build 0)  -->
<!DOCTYPE svg PUBLIC "-//W3C//DTD SVG 1.1//EN" "http://www.w3.org/Graphics/SVG/1.1/DTD/svg11.dtd">
<svg version="1.1" xmlns="http://www.w3.org/2000/svg" xmlns:xlink="http://www.w3.org/1999/xlink" x="0px" y="0px" width="300px"
	 height="300px" viewBox="0 0 300 300" enable-background="new 0 0 300 300" xml:space="preserve">
<g id="Camera_Standing">
</g>
<g id="Camera_Lying">
</g>
<g id="Colours_1_">
</g>
<g id="Aquarell_1_">
</g>
<g id="Envelope_big_1_">
</g>
<g id="Envelope_small_1_">
</g>
<g id="Airmail_1_">
</g>
<g id="Highlighters_Closed_1_">
</g>
<g id="Highlighters_Open_1_">
</g>
<g id="USB_Stick_1_">
</g>
<g id="Pencil_Small">
</g>
<g id="Pencil_Large">
</g>
<g id="Brush_3_">
</g>
<g id="Notepad_1_">
</g>
<g id="Moleskine_Large_Open">
</g>
<g id="Moleskine_Small_Open_1_">
</g>
<g id="Moleskine_Large">
</g>
<g id="Moleskine_Small_1_">
</g>
<g id="iPad_Mini">
</g>
<g id="MacBook_13_x22_">
</g>
<g id="iMac_1_">
</g>
<g id="Wallet_2_">
</g>
<g id="iPhone_6_Grey">
</g>
<g id="iPhone_6_Silver_1_">
</g>
<g id="iPhone_6_Gold_1_">
</g>
<g id="Wallet_1_">
</g>
<g id="Bills">
</g>
<g id="Coins_1_">
</g>
<g id="Passport_Red_1_">
</g>
<g id="Passport_Blue_1_">
</g>
<g id="Credit_Card_Red">
</g>
<g id="Credit_Card_Blue">
</g>
<g id="Aeroplane_1_">
</g>
<g id="Magic_Mouse_1_">
</g>
<g id="Keyboard">
</g>
<g id="Ruler_1_">
</g>
<g id="Charger_1_">
</g>
<g id="Macbook_13_x22_">
</g>
<g id="Brushes">
</g>
<g id="Pencils">
</g>
<g id="Can">
</g>
<g id="Coffee">
</g>
<g id="Stylus">
</g>
<g id="Wacom_1_">
</g>
<g id="Paperclips_1_">
</g>
<g id="Earbuds_1_">
</g>
<g id="Glasses">
</g>
<g id="Sunglasses">
</g>
<g id="Case_1_">
</g>
<g id="Donut_1_">
	<g id="Donut">
		<path fill="#FEF7CE" d="M153.241,262.305c-60.932,0-110.503-49.573-110.503-110.506c0-60.934,49.571-110.506,110.503-110.506
			c4.403,0,8.829,0.263,13.2,0.784c-1.108,1.996-1.698,4.251-1.698,6.591c0,5.105,2.917,9.764,7.338,12.081
			c-3.609,2.521-5.84,6.688-5.84,11.169c0,6.638,4.679,12.187,11.073,13.385c0.183,0.459,0.375,0.923,0.577,1.398
			c-0.753,1.721-1.148,3.593-1.148,5.47c0,7.513,6.113,13.625,13.626,13.625c0.074,0,0.147-0.001,0.221-0.002
			c0.404,0.416,0.822,0.833,1.25,1.249c-0.064,0.539-0.096,1.084-0.096,1.629c0,7.512,6.113,13.624,13.626,13.624
			c2.515,0,4.939-0.685,7.075-1.991c0.354,0.138,0.716,0.275,1.091,0.412c1.907,5.396,7.039,9.078,12.832,9.078
			c4.253,0,8.209-1.963,10.783-5.302c0.303-0.01,0.606-0.023,0.912-0.038c2.572,3.365,6.53,5.34,10.806,5.34
			c4.674,0,8.834-2.361,11.288-6.013c2.384,9.121,3.59,18.52,3.59,28.018C263.747,212.732,214.174,262.305,153.241,262.305z
			 M153.241,104.794c-25.917,0-47.002,21.086-47.002,47.004c0,25.916,21.085,47,47.002,47c25.916,0,47-21.084,47-47
			C200.241,125.88,179.157,104.794,153.241,104.794z"/>
		<path fill="#333333" d="M153.241,43.292c3.425,0,6.866,0.162,10.282,0.484c-0.513,1.559-0.78,3.206-0.78,4.892
			c0,4.868,2.312,9.381,6.005,12.291c-2.831,2.877-4.506,6.799-4.506,10.959c0,7.154,4.739,13.205,11.397,15.048
			c-0.589,1.669-0.895,3.435-0.895,5.205c0,8.406,6.673,15.283,15,15.613c0.008,0.008,0.017,0.016,0.024,0.024
			c-0.016,0.288-0.023,0.575-0.023,0.863c0,8.615,7.01,15.624,15.626,15.624c2.39,0,4.708-0.539,6.825-1.574
			c2.517,5.451,8.02,9.073,14.173,9.073c4.3,0,8.335-1.75,11.253-4.787c2.915,3.039,6.94,4.787,11.249,4.787
			c3.903,0,7.495-1.436,10.245-3.833c1.75,7.797,2.633,15.78,2.633,23.837c0,59.83-48.676,108.506-108.506,108.506
			c-59.829,0-108.503-48.676-108.503-108.506c0-28.983,11.286-56.231,31.78-76.726C97.011,54.579,124.258,43.292,153.241,43.292
			 M153.241,200.799c27.019,0,49-21.981,49-49c0-27.021-21.981-49.004-49-49.004c-27.02,0-49.002,21.983-49.002,49.004
			C104.238,178.817,126.221,200.799,153.241,200.799 M153.241,39.292c-62.134,0-112.503,50.372-112.503,112.506
			c0,62.131,50.369,112.506,112.503,112.506c62.136,0,112.506-50.375,112.506-112.506c0-11.981-1.882-23.521-5.348-34.351
			c-0.641,5.815-5.543,10.346-11.53,10.346c-4.127,0-7.744-2.154-9.808-5.4c-0.981,0.064-1.964,0.107-2.96,0.125
			c-2.074,3.173-5.652,5.274-9.733,5.274c-5.378,0-9.895-3.661-11.219-8.625c-0.991-0.346-1.973-0.714-2.937-1.113
			c-1.922,1.402-4.285,2.239-6.843,2.239c-6.421,0-11.626-5.202-11.626-11.624c0-0.803,0.081-1.592,0.236-2.351
			c-0.885-0.832-1.75-1.691-2.583-2.577c-0.342,0.029-0.682,0.053-1.027,0.053c-6.423,0-11.626-5.207-11.626-11.625
			c0-1.959,0.49-3.805,1.346-5.427c-0.471-1.069-0.919-2.153-1.334-3.255c-5.897-0.56-10.514-5.523-10.514-11.57
			c0-4.689,2.783-8.721,6.781-10.559c0.01-0.515,0.014-1.032,0.042-1.548c-4.811-1.427-8.321-5.872-8.321-11.143
			c0-3.164,1.265-6.027,3.316-8.123C164.571,39.722,158.958,39.292,153.241,39.292L153.241,39.292z M153.241,196.799
			c-24.852,0-45.002-20.147-45.002-45c0-24.857,20.15-45.004,45.002-45.004c24.854,0,45,20.147,45,45.004
			C198.241,176.652,178.094,196.799,153.241,196.799L153.241,196.799z"/>
	</g>
	<g id="Cream">
		<path fill="#BB4D67" d="M258.38,122.832c-2.099,2.999-5.57,4.962-9.511,4.962c-4.127,0-7.744-2.154-9.808-5.4
			c-0.981,0.064-1.964,0.107-2.96,0.125c-2.074,3.173-5.652,5.274-9.733,5.274c-5.378,0-9.895-3.661-11.219-8.625
			c-0.991-0.346-1.973-0.714-2.937-1.113c-1.922,1.402-4.285,2.239-6.843,2.239c-6.421,0-11.626-5.202-11.626-11.624
			c0-0.803,0.081-1.592,0.236-2.351c-0.885-0.832-1.75-1.691-2.583-2.577c-0.342,0.029-0.682,0.053-1.027,0.053
			c-6.423,0-11.626-5.207-11.626-11.625c0-1.959,0.49-3.805,1.346-5.427c-0.471-1.069-0.919-2.153-1.334-3.255
			c-5.897-0.56-10.514-5.523-10.514-11.57c0-4.689,2.783-8.721,6.781-10.559c0.01-0.515,0.014-1.032,0.042-1.548
			c-4.811-1.427-8.321-5.872-8.321-11.143c-6.75,1.874-24.003,1.123-24.003,1.123c-16.5,2.254-43.5-5.247-56.253,7.501
			c-12.749,12.752-9.749,26.252-19.5,39.754c-5.708,7.901-21.716,9.905-24,24.749c-1.502,9.75,6.75,14.252,6.75,20.254
			c0,5.999-9.75,27.749-9.75,33c0,5.25,0.751,16.499,9.75,32.25c9.001,15.752,11.25,15,23.251,17.251
			c14.93,2.799,16.468-3.019,22.501,0.749c12,7.501,9.749,13.504,9.749,18.751c0,5.253,16.493,25.537,42.753,15.751
			c38.251-14.248,42.002-3.751,58.504-7.499c16.5-3.75,33.751-15.751,42.001-30.003c8.252-14.248-1.5-28.5,2.249-38.254
			c3.749-9.746,15.002-21.75,15.751-28.498c0.75-6.749,0-23.252-3.749-27.754C261.959,126.854,260.38,125.081,258.38,122.832z
			 M202.744,162.296c-2.247,5.255-9.062,5.315-20.251,16.504c-9,8.997,0.749,16.499-13.5,23.998
			c-14.251,7.501-22.502-0.746-29.252-5.999c-6.75-5.251-9.75-14.249-18.751-20.251c-9.001-5.998-20.251-5.998-23.252-13.5
			c-3-7.5,9.004-11.249,12.003-20.251c2.999-9,2.313-34.49,16.499-39.001c16.5-5.251,15.003,5.998,25.501,7.501
			c10.501,1.498,24.749-5.254,30.75-2.253c6,3.001,6,16.501,10.503,22.5c4.499,6.002,12.748,9.753,15,14.999
			C210.244,151.799,204.993,157.05,202.744,162.296z"/>
	</g>
	<path id="Light" fill="#CF627C" d="M120.99,76.794c19.503-5.999,31.502-15.752,48.003-15.752c1.868,0,3.903-0.056,6.041-0.159
		c0.006-0.358,0.011-0.716,0.031-1.072c-4.811-1.427-8.321-5.872-8.321-11.143c-6.75,1.874-24.003,1.123-24.003,1.123
		c-16.5,2.254-43.5-5.247-56.253,7.501c-12.749,12.752-9.749,26.252-19.5,39.754c-5.708,7.901-21.716,9.905-24,24.749
		c-1.502,9.75,6.75,14.252,6.75,20.254c0,1.426-0.558,3.754-1.399,6.538c3.15-5.391,7.063-9.742,11.898-11.79
		c19.501-8.253,18.002-7.501,26.251-16.503C94.738,111.297,101.487,82.796,120.99,76.794z"/>
	<g id="Cream_Border">
		<path fill="#333333" d="M163.465,53.327c0.955,3.013,2.809,5.682,5.283,7.632c-2.831,2.877-4.506,6.799-4.506,10.959
			c0,7.154,4.739,13.205,11.397,15.048c-0.589,1.669-0.895,3.435-0.895,5.205c0,4.95,2.314,9.371,5.918,12.235
			c-0.715-0.094-1.477-0.14-2.289-0.14c-3.283,0-7.035,0.753-11.007,1.55c-4.169,0.836-8.48,1.701-12.301,1.701
			c-0.994,0-1.921-0.061-2.756-0.179c-2.85-0.408-4.423-1.818-6.414-3.604c-2.646-2.373-5.939-5.325-12.093-5.325
			c-2.575,0-5.445,0.515-8.773,1.574c-12.912,4.105-15.476,20.611-17.348,32.664c-0.551,3.547-1.072,6.897-1.734,8.885
			c-0.992,2.976-3.542,5.464-6.008,7.87c-3.835,3.741-8.608,8.396-5.914,15.131c2.482,6.206,8.624,8.468,14.564,10.655
			c3.46,1.274,7.039,2.592,10.183,4.688c4.436,2.958,7.341,6.9,10.15,10.712c2.43,3.297,4.942,6.706,8.363,9.367
			c0.529,0.412,1.067,0.842,1.617,1.282c4.775,3.818,10.718,8.57,19.188,8.57c4.096,0,8.391-1.167,12.766-3.471
			c9.935-5.229,10.522-11.253,10.994-16.094c0.31-3.184,0.555-5.699,3.471-8.615c5.417-5.417,9.634-7.996,13.022-10.067
			c3.48-2.128,6.485-3.966,8.077-7.689c0.54-1.26,1.338-2.607,2.183-4.034c2.439-4.121,5.475-9.248,3.068-14.872
			c-1.622-3.778-5.023-6.508-8.625-9.397c-2.511-2.015-5.107-4.098-6.851-6.425c-1.465-1.951-2.477-5.54-3.456-9.011
			c-0.415-1.473-0.833-2.957-1.304-4.396c2.584,5.074,7.86,8.559,13.935,8.559c2.39,0,4.708-0.539,6.825-1.574
			c2.517,5.451,8.02,9.073,14.173,9.073c4.3,0,8.335-1.75,11.253-4.787c2.914,3.039,6.94,4.787,11.249,4.787
			c3.409,0,6.682-1.121,9.349-3.118c0.626,0.71,1.125,1.282,1.457,1.677c2.337,2.808,3.692,17.15,2.847,24.753
			c-0.296,2.662-3.795,7.895-6.882,12.512c-3.312,4.953-6.736,10.075-8.628,14.992c-1.942,5.054-1.076,10.478-0.158,16.22
			c1.128,7.062,2.294,14.363-1.819,21.465c-7.514,12.98-23.726,24.539-39.425,28.106c-2.309,0.524-4.451,0.769-6.74,0.769
			c-2.246,0-4.448-0.238-6.781-0.491c-2.746-0.297-5.857-0.635-9.548-0.635c-9.855,0-21.277,2.545-35.946,8.009
			c-4.236,1.579-8.424,2.379-12.448,2.379c-15.342,0-24.395-11.524-24.908-14.464c0.003-0.566,0.038-1.184,0.075-1.837
			c0.37-6.571-0.248-13.063-11.705-20.224c-2.1-1.312-4.085-1.922-6.249-1.922c-1.488,0-2.827,0.284-4.244,0.585
			c-1.704,0.362-3.635,0.772-6.383,0.772c-2.119,0-4.411-0.237-7.007-0.724c-0.918-0.172-1.779-0.327-2.591-0.473
			c-9.127-1.64-10.53-1.892-17.924-14.832c-6.12-10.712-9.223-20.895-9.223-30.266c0-1.847,2.543-8.983,4.399-14.194
			c3.329-9.342,5.35-15.27,5.35-18.805c0-3.639-1.817-6.509-3.575-9.285c-2.079-3.284-3.875-6.119-3.221-10.361
			c1.167-7.589,6.883-11.062,12.936-14.74c3.833-2.33,7.798-4.738,10.354-8.276c4.72-6.535,6.654-12.919,8.525-19.094
			c2.149-7.092,4.179-13.79,10.56-20.172c3.034-3.034,8.492-6.515,23.894-6.515c3.63,0,7.384,0.167,11.015,0.327
			c3.648,0.162,7.095,0.314,10.451,0.314c3.194,0,5.897-0.146,8.248-0.446c0.998,0.038,3.962,0.138,7.62,0.138
			C155.838,53.939,160.162,53.734,163.465,53.327 M186.97,107.423c0.898,0.2,1.825,0.323,2.773,0.36
			c0.008,0.008,0.016,0.016,0.024,0.024c-0.016,0.288-0.023,0.575-0.023,0.863c0,1.308,0.162,2.579,0.466,3.794
			C189.367,110.535,188.336,108.796,186.97,107.423 M166.743,48.668c-3.747,1.04-10.729,1.271-16.2,1.271
			c-4.387,0-7.803-0.149-7.803-0.149c-2.479,0.338-5.197,0.457-8.065,0.457c-6.68,0-14.186-0.642-21.466-0.642
			c-10.407,0-20.345,1.312-26.722,7.686c-12.749,12.752-9.749,26.252-19.5,39.754c-5.708,7.901-21.716,9.905-24,24.749
			c-1.502,9.75,6.75,14.252,6.75,20.254c0,5.999-9.75,27.749-9.75,33c0,5.25,0.751,16.499,9.75,32.25
			c9.001,15.752,11.25,15,23.251,17.251c3.107,0.583,5.636,0.792,7.745,0.792c5.373,0,8.025-1.358,10.627-1.358
			c1.283,0,2.552,0.33,4.13,1.315c12,7.501,9.749,13.504,9.749,18.751c0,4.256,10.831,18.382,28.908,18.382
			c4.234,0,8.862-0.774,13.845-2.631c16.882-6.288,27.045-7.757,34.549-7.757c6.572,0,11.106,1.126,16.329,1.126
			c2.326,0,4.786-0.223,7.626-0.868c16.5-3.75,33.751-15.751,42.001-30.003c8.252-14.248-1.5-28.5,2.249-38.254
			c3.749-9.746,15.002-21.75,15.751-28.498c0.75-6.749,0-23.252-3.749-27.754c-0.789-0.939-2.368-2.713-4.368-4.962
			c-2.099,2.999-5.57,4.962-9.511,4.962c-4.127,0-7.744-2.154-9.808-5.4c-0.981,0.064-1.964,0.107-2.96,0.125
			c-2.074,3.173-5.652,5.274-9.733,5.274c-5.378,0-9.895-3.661-11.219-8.625c-0.991-0.346-1.973-0.714-2.937-1.113
			c-1.922,1.402-4.285,2.239-6.843,2.239c-6.421,0-11.626-5.202-11.626-11.624c0-0.803,0.081-1.592,0.236-2.351
			c-0.885-0.832-1.75-1.691-2.583-2.577c-0.342,0.029-0.682,0.053-1.027,0.053c-6.423,0-11.626-5.207-11.626-11.625
			c0-1.959,0.49-3.805,1.346-5.427c-0.471-1.069-0.919-2.153-1.334-3.255c-5.897-0.56-10.514-5.523-10.514-11.57
			c0-4.689,2.783-8.721,6.781-10.559c0.01-0.515,0.014-1.032,0.042-1.548C170.253,58.384,166.743,53.939,166.743,48.668
			L166.743,48.668z M158.089,205.808c-7.965,0-13.538-5.265-18.349-9.009c-6.75-5.251-9.75-14.249-18.751-20.251
			c-9.001-5.998-20.251-5.998-23.252-13.5c-3-7.5,9.004-11.249,12.003-20.251c2.999-9,2.313-34.49,16.499-39.001
			c3.083-0.981,5.539-1.386,7.562-1.386c8.798,0,9.403,7.665,17.94,8.888c1.072,0.153,2.185,0.22,3.323,0.22
			c7.934,0,17.147-3.25,23.308-3.251c1.607,0,3.005,0.221,4.12,0.778c6,3.001,6,16.501,10.503,22.5
			c4.499,6.002,12.748,9.753,15,14.999c2.249,5.255-3.002,10.506-5.251,15.752c-2.247,5.255-9.062,5.315-20.251,16.504
			c-9,8.997,0.749,16.499-13.5,23.998C164.899,204.952,161.299,205.808,158.089,205.808L158.089,205.808z"/>
	</g>
	<g id="Sprinkles">
		
			<line id="White" fill="none" stroke="#FFFFFF" stroke-width="4" stroke-miterlimit="10" x1="100.738" y1="80.544" x2="110.489" y2="71.543"/>
		
			<line id="White_2_" fill="none" stroke="#FFFFFF" stroke-width="4" stroke-miterlimit="10" x1="60.986" y1="168.3" x2="69.24" y2="158.548"/>
		
			<line id="White_1_" fill="none" stroke="#FFFFFF" stroke-width="4" stroke-miterlimit="10" x1="69.987" y1="132.296" x2="79.737" y2="138.298"/>
		
			<line id="White_3_" fill="none" stroke="#FFFFFF" stroke-width="4" stroke-miterlimit="10" x1="113.488" y1="214.05" x2="117.991" y2="205.801"/>
		
			<line id="White_4_" fill="none" stroke="#FFFFFF" stroke-width="4" stroke-miterlimit="10" x1="175.741" y1="237.3" x2="169.741" y2="222.3"/>
		
			<line id="White_5_" fill="none" stroke="#FFFFFF" stroke-width="4" stroke-miterlimit="10" x1="207.244" y1="229.802" x2="224.494" y2="229.05"/>
		
			<line id="White_6_" fill="none" stroke="#FFFFFF" stroke-width="4" stroke-miterlimit="10" x1="223.744" y1="172.05" x2="217.744" y2="177.299"/>
		
			<line id="White_7_" fill="none" stroke="#FFFFFF" stroke-width="4" stroke-miterlimit="10" x1="258.997" y1="149.549" x2="252.247" y2="151.799"/>
		
			<line id="Blue" fill="none" stroke="#58B6B4" stroke-width="4" stroke-miterlimit="10" x1="145.739" y1="84.292" x2="165.994" y2="91.042"/>
		
			<line id="Blue_1_" fill="none" stroke="#58B6B4" stroke-width="4" stroke-miterlimit="10" x1="91.738" y1="103.796" x2="84.24" y2="112.795"/>
		
			<line id="Blue_2_" fill="none" stroke="#58B6B4" stroke-width="4" stroke-miterlimit="10" x1="91.738" y1="182.55" x2="87.239" y2="190.8"/>
		
			<line id="Blue_3_" fill="none" stroke="#58B6B4" stroke-width="4" stroke-miterlimit="10" x1="202.744" y1="200.55" x2="195.242" y2="214.05"/>
		
			<line id="Blue_4_" fill="none" stroke="#58B6B4" stroke-width="4" stroke-miterlimit="10" x1="233.496" y1="180.298" x2="245.496" y2="165.295"/>
		
			<line id="Blue_5_" fill="none" stroke="#58B6B4" stroke-width="4" stroke-miterlimit="10" x1="87.991" y1="211.802" x2="103.74" y2="207.299"/>
		
			<line id="Blue_6_" fill="none" stroke="#58B6B4" stroke-width="4" stroke-miterlimit="10" x1="138.239" y1="208.052" x2="133.741" y2="221.549"/>
		
			<line id="Blue_7_" fill="none" stroke="#58B6B4" stroke-width="4" stroke-miterlimit="10" x1="156.242" y1="241.803" x2="156.242" y2="232.801"/>
		
			<line id="Blue_8_" fill="none" stroke="#58B6B4" stroke-width="4" stroke-miterlimit="10" x1="246.996" y1="132.296" x2="240.998" y2="145.049"/>
		
			<line id="Blue_9_" fill="none" stroke="#58B6B4" stroke-width="4" stroke-miterlimit="10" x1="149.49" y1="61.042" x2="163.742" y2="57.292"/>
		
			<line id="Yellow" fill="none" stroke="#FCC865" stroke-width="4" stroke-miterlimit="10" x1="93.989" y1="136.047" x2="93.989" y2="120.295"/>
		
			<line id="Yellow_1_" fill="none" stroke="#FCC865" stroke-width="4" stroke-miterlimit="10" x1="60.236" y1="195.299" x2="70.738" y2="196.05"/>
		
			<line id="Yellow_2_" fill="none" stroke="#FCC865" stroke-width="4" stroke-miterlimit="10" x1="116.489" y1="182.55" x2="99.991" y2="193.8"/>
		
			<line id="Yellow_3_" fill="none" stroke="#FCC865" stroke-width="4" stroke-miterlimit="10" x1="128.492" y1="235.802" x2="140.493" y2="231.302"/>
		
			<line id="Yellow_4_" fill="none" stroke="#FCC865" stroke-width="4" stroke-miterlimit="10" x1="228.995" y1="201.302" x2="228.995" y2="193.8"/>
		
			<line id="Yellow_5_" fill="none" stroke="#FCC865" stroke-width="4" stroke-miterlimit="10" x1="221.495" y1="136.798" x2="231.994" y2="154.798"/>
		
			<line id="Yellow_6_" fill="none" stroke="#FCC865" stroke-width="4" stroke-miterlimit="10" x1="135.99" y1="69.292" x2="128.492" y2="79.793"/>
		
			<line id="Yellow_7_" fill="none" stroke="#FCC865" stroke-width="4" stroke-miterlimit="10" x1="189.993" y1="185.55" x2="205.743" y2="184.798"/>
		
			<line id="Yellow_8_" fill="none" stroke="#FCC865" stroke-width="4" stroke-miterlimit="10" x1="115.739" y1="100.797" x2="109.741" y2="91.795"/>
		
			<line id="Yellow_9_" fill="none" stroke="#FCC865" stroke-width="4" stroke-miterlimit="10" x1="60.236" y1="112.795" x2="69.24" y2="119.548"/>
		
			<line id="Yellow_10_" fill="none" stroke="#FCC865" stroke-width="4" stroke-miterlimit="10" x1="232.744" y1="221.549" x2="219.248" y2="213.301"/>
	</g>
</g>
</svg>
